<mxfile host="app.diagrams.net" agent="Mozilla/5.0 (Windows NT 10.0; Win64; x64) AppleWebKit/537.36 (KHTML, like Gecko) Chrome/138.0.0.0 Safari/537.36" version="28.0.7">
  <diagram id="wHSrsOiqJCGeCq1696IS" name="UC009 クラス図">
    <mxGraphModel dx="1025" dy="451" grid="1" gridSize="10" guides="1" tooltips="1" connect="1" arrows="1" fold="1" page="1" pageScale="1" pageWidth="827" pageHeight="1169" math="0" shadow="0">
      <root>
        <mxCell id="0" />
        <mxCell id="1" parent="0" />
        <mxCell id="LN0LXFTyaYzdAfLFpLI3-5" value="&amp;lt;&amp;lt;interface&amp;gt;&amp;gt; AccountService&lt;div&gt;&lt;br&gt;&lt;/div&gt;" style="swimlane;fontStyle=1;align=center;verticalAlign=top;childLayout=stackLayout;horizontal=1;startSize=26;horizontalStack=0;resizeParent=1;resizeParentMax=0;resizeLast=0;collapsible=1;marginBottom=0;whiteSpace=wrap;html=1;" parent="1" vertex="1">
          <mxGeometry x="160" y="420" width="470" height="90" as="geometry">
            <mxRectangle x="10" y="520" width="200" height="40" as="alternateBounds" />
          </mxGeometry>
        </mxCell>
        <mxCell id="LN0LXFTyaYzdAfLFpLI3-7" value="" style="line;strokeWidth=1;fillColor=none;align=left;verticalAlign=middle;spacingTop=-1;spacingLeft=3;spacingRight=3;rotatable=0;labelPosition=right;points=[];portConstraint=eastwest;strokeColor=inherit;" parent="LN0LXFTyaYzdAfLFpLI3-5" vertex="1">
          <mxGeometry y="26" width="470" height="8" as="geometry" />
        </mxCell>
        <mxCell id="LN0LXFTyaYzdAfLFpLI3-8" value="+ getEmployeeCategories():List&amp;lt;EmployeeCategories&amp;gt;&lt;div&gt;+ addAccount(Account):void&lt;/div&gt;" style="text;strokeColor=none;fillColor=none;align=left;verticalAlign=top;spacingLeft=4;spacingRight=4;overflow=hidden;rotatable=0;points=[[0,0.5],[1,0.5]];portConstraint=eastwest;whiteSpace=wrap;html=1;" parent="LN0LXFTyaYzdAfLFpLI3-5" vertex="1">
          <mxGeometry y="34" width="470" height="56" as="geometry" />
        </mxCell>
        <mxCell id="LN0LXFTyaYzdAfLFpLI3-9" value="AccountController" style="swimlane;fontStyle=1;align=center;verticalAlign=top;childLayout=stackLayout;horizontal=1;startSize=26;horizontalStack=0;resizeParent=1;resizeParentMax=0;resizeLast=0;collapsible=1;marginBottom=0;whiteSpace=wrap;html=1;" parent="1" vertex="1">
          <mxGeometry x="179" y="110" width="470" height="180" as="geometry" />
        </mxCell>
        <mxCell id="LN0LXFTyaYzdAfLFpLI3-10" value="- accountService : AccountService&lt;div&gt;- itemFormValidator : ItemFormValidator&lt;/div&gt;" style="text;strokeColor=none;fillColor=none;align=left;verticalAlign=top;spacingLeft=4;spacingRight=4;overflow=hidden;rotatable=0;points=[[0,0.5],[1,0.5]];portConstraint=eastwest;whiteSpace=wrap;html=1;" parent="LN0LXFTyaYzdAfLFpLI3-9" vertex="1">
          <mxGeometry y="26" width="470" height="54" as="geometry" />
        </mxCell>
        <mxCell id="LN0LXFTyaYzdAfLFpLI3-11" value="" style="line;strokeWidth=1;fillColor=none;align=left;verticalAlign=middle;spacingTop=-1;spacingLeft=3;spacingRight=3;rotatable=0;labelPosition=right;points=[];portConstraint=eastwest;strokeColor=inherit;" parent="LN0LXFTyaYzdAfLFpLI3-9" vertex="1">
          <mxGeometry y="80" width="470" height="8" as="geometry" />
        </mxCell>
        <mxCell id="LN0LXFTyaYzdAfLFpLI3-12" value="+ Form(model:Model): String&lt;div&gt;+ confirm(itemForm,bindingResult,model : ItemForm,BindingResult,Model):String&lt;/div&gt;&lt;div&gt;+ execute(itemForm,redirectAttributes : ItemForm,R&lt;span style=&quot;background-color: transparent; color: light-dark(rgb(0, 0, 0), rgb(255, 255, 255));&quot;&gt;edirectAttributes&lt;/span&gt;&lt;span style=&quot;background-color: transparent; color: light-dark(rgb(0, 0, 0), rgb(255, 255, 255));&quot;&gt;):String&lt;/span&gt;&lt;/div&gt;&lt;div&gt;+ complete(itemForm,sessionStatus : ItemForm,SessionStatus):String&lt;/div&gt;" style="text;strokeColor=none;fillColor=none;align=left;verticalAlign=top;spacingLeft=4;spacingRight=4;overflow=hidden;rotatable=0;points=[[0,0.5],[1,0.5]];portConstraint=eastwest;whiteSpace=wrap;html=1;" parent="LN0LXFTyaYzdAfLFpLI3-9" vertex="1">
          <mxGeometry y="88" width="470" height="92" as="geometry" />
        </mxCell>
        <mxCell id="LN0LXFTyaYzdAfLFpLI3-13" value="AccountForm" style="swimlane;fontStyle=1;align=center;verticalAlign=top;childLayout=stackLayout;horizontal=1;startSize=26;horizontalStack=0;resizeParent=1;resizeParentMax=0;resizeLast=0;collapsible=1;marginBottom=0;whiteSpace=wrap;html=1;" parent="1" vertex="1">
          <mxGeometry x="827" y="340" width="160" height="98" as="geometry" />
        </mxCell>
        <mxCell id="LN0LXFTyaYzdAfLFpLI3-14" value="- empName : String&lt;div&gt;- accountName : String&lt;/div&gt;&lt;div&gt;- password : String&lt;/div&gt;" style="text;strokeColor=none;fillColor=none;align=left;verticalAlign=top;spacingLeft=4;spacingRight=4;overflow=hidden;rotatable=0;points=[[0,0.5],[1,0.5]];portConstraint=eastwest;whiteSpace=wrap;html=1;" parent="LN0LXFTyaYzdAfLFpLI3-13" vertex="1">
          <mxGeometry y="26" width="160" height="64" as="geometry" />
        </mxCell>
        <mxCell id="LN0LXFTyaYzdAfLFpLI3-15" value="" style="line;strokeWidth=1;fillColor=none;align=left;verticalAlign=middle;spacingTop=-1;spacingLeft=3;spacingRight=3;rotatable=0;labelPosition=right;points=[];portConstraint=eastwest;strokeColor=inherit;" parent="LN0LXFTyaYzdAfLFpLI3-13" vertex="1">
          <mxGeometry y="90" width="160" height="8" as="geometry" />
        </mxCell>
        <mxCell id="LN0LXFTyaYzdAfLFpLI3-21" value="AccountServiceImpl" style="swimlane;fontStyle=1;align=center;verticalAlign=top;childLayout=stackLayout;horizontal=1;startSize=26;horizontalStack=0;resizeParent=1;resizeParentMax=0;resizeLast=0;collapsible=1;marginBottom=0;whiteSpace=wrap;html=1;" parent="1" vertex="1">
          <mxGeometry x="180" y="640" width="360" height="190" as="geometry" />
        </mxCell>
        <mxCell id="LN0LXFTyaYzdAfLFpLI3-22" value="+ accountRepository : AccountRepository&lt;div&gt;+ accountCategoriesRepository : A&lt;span style=&quot;background-color: transparent; color: light-dark(rgb(0, 0, 0), rgb(255, 255, 255));&quot;&gt;ccountCategoriesRepository&lt;/span&gt;&lt;span style=&quot;background-color: transparent; color: light-dark(rgb(0, 0, 0), rgb(255, 255, 255));&quot;&gt;&amp;nbsp;&lt;/span&gt;&lt;/div&gt;" style="text;strokeColor=none;fillColor=none;align=left;verticalAlign=top;spacingLeft=4;spacingRight=4;overflow=hidden;rotatable=0;points=[[0,0.5],[1,0.5]];portConstraint=eastwest;whiteSpace=wrap;html=1;" parent="LN0LXFTyaYzdAfLFpLI3-21" vertex="1">
          <mxGeometry y="26" width="360" height="64" as="geometry" />
        </mxCell>
        <mxCell id="LN0LXFTyaYzdAfLFpLI3-23" value="" style="line;strokeWidth=1;fillColor=none;align=left;verticalAlign=middle;spacingTop=-1;spacingLeft=3;spacingRight=3;rotatable=0;labelPosition=right;points=[];portConstraint=eastwest;strokeColor=inherit;" parent="LN0LXFTyaYzdAfLFpLI3-21" vertex="1">
          <mxGeometry y="90" width="360" height="8" as="geometry" />
        </mxCell>
        <mxCell id="LN0LXFTyaYzdAfLFpLI3-24" value="+ getAccountCategories():List&amp;lt;AccountCategories&amp;gt;&lt;div&gt;+ addAccount(Account):void&lt;/div&gt;&lt;div&gt;+&amp;nbsp;&lt;span style=&quot;background-color: rgb(255, 255, 255); font-size: 11px; text-align: center; text-wrap-mode: nowrap; color: light-dark(rgb(0, 0, 0), rgb(255, 255, 255));&quot;&gt;sameAccountName():Boolean&lt;/span&gt;&lt;/div&gt;&lt;div&gt;&lt;br&gt;&lt;/div&gt;" style="text;strokeColor=none;fillColor=none;align=left;verticalAlign=top;spacingLeft=4;spacingRight=4;overflow=hidden;rotatable=0;points=[[0,0.5],[1,0.5]];portConstraint=eastwest;whiteSpace=wrap;html=1;" parent="LN0LXFTyaYzdAfLFpLI3-21" vertex="1">
          <mxGeometry y="98" width="360" height="92" as="geometry" />
        </mxCell>
        <mxCell id="sCUTxpK51lz4mbgS00I6-1" value="&amp;lt;&amp;lt;interface&amp;gt;&amp;gt;AccountCategoriesRepository" style="swimlane;fontStyle=1;align=center;verticalAlign=top;childLayout=stackLayout;horizontal=1;startSize=26;horizontalStack=0;resizeParent=1;resizeParentMax=0;resizeLast=0;collapsible=1;marginBottom=0;whiteSpace=wrap;html=1;" parent="1" vertex="1">
          <mxGeometry x="100" y="930" width="310" height="70" as="geometry" />
        </mxCell>
        <mxCell id="sCUTxpK51lz4mbgS00I6-3" value="" style="line;strokeWidth=1;fillColor=none;align=left;verticalAlign=middle;spacingTop=-1;spacingLeft=3;spacingRight=3;rotatable=0;labelPosition=right;points=[];portConstraint=eastwest;strokeColor=inherit;" parent="sCUTxpK51lz4mbgS00I6-1" vertex="1">
          <mxGeometry y="26" width="310" height="8" as="geometry" />
        </mxCell>
        <mxCell id="sCUTxpK51lz4mbgS00I6-4" value="+ selectAll() : List&amp;lt;AccountCategories&amp;gt;&lt;div&gt;&lt;div&gt;&lt;span style=&quot;background-color: rgb(255, 255, 255); font-size: 11px; text-align: center; text-wrap-mode: nowrap; color: light-dark(rgb(0, 0, 0), rgb(255, 255, 255));&quot;&gt;+&amp;nbsp;&lt;/span&gt;&lt;span style=&quot;background-color: rgb(255, 255, 255); font-size: 11px; text-align: center; text-wrap-mode: nowrap; color: light-dark(rgb(0, 0, 0), rgb(255, 255, 255));&quot;&gt;selectByAccountName&lt;/span&gt;&lt;span style=&quot;font-size: 11px; text-align: center; text-wrap-mode: nowrap; background-color: transparent; color: light-dark(rgb(0, 0, 0), rgb(255, 255, 255));&quot;&gt;():List&amp;lt;AccountName&amp;gt;&lt;/span&gt;&lt;/div&gt;&lt;div&gt;&lt;br&gt;&lt;/div&gt;&lt;/div&gt;" style="text;strokeColor=none;fillColor=none;align=left;verticalAlign=top;spacingLeft=4;spacingRight=4;overflow=hidden;rotatable=0;points=[[0,0.5],[1,0.5]];portConstraint=eastwest;whiteSpace=wrap;html=1;" parent="sCUTxpK51lz4mbgS00I6-1" vertex="1">
          <mxGeometry y="34" width="310" height="36" as="geometry" />
        </mxCell>
        <mxCell id="sCUTxpK51lz4mbgS00I6-5" value="&amp;lt;&amp;lt;interface&amp;gt;&amp;gt;AccountRepository" style="swimlane;fontStyle=1;align=center;verticalAlign=top;childLayout=stackLayout;horizontal=1;startSize=26;horizontalStack=0;resizeParent=1;resizeParentMax=0;resizeLast=0;collapsible=1;marginBottom=0;whiteSpace=wrap;html=1;" parent="1" vertex="1">
          <mxGeometry x="460" y="930" width="210" height="60" as="geometry" />
        </mxCell>
        <mxCell id="sCUTxpK51lz4mbgS00I6-7" value="" style="line;strokeWidth=1;fillColor=none;align=left;verticalAlign=middle;spacingTop=-1;spacingLeft=3;spacingRight=3;rotatable=0;labelPosition=right;points=[];portConstraint=eastwest;strokeColor=inherit;" parent="sCUTxpK51lz4mbgS00I6-5" vertex="1">
          <mxGeometry y="26" width="210" height="8" as="geometry" />
        </mxCell>
        <mxCell id="sCUTxpK51lz4mbgS00I6-8" value="+ insert(Account) ; void" style="text;strokeColor=none;fillColor=none;align=left;verticalAlign=top;spacingLeft=4;spacingRight=4;overflow=hidden;rotatable=0;points=[[0,0.5],[1,0.5]];portConstraint=eastwest;whiteSpace=wrap;html=1;" parent="sCUTxpK51lz4mbgS00I6-5" vertex="1">
          <mxGeometry y="34" width="210" height="26" as="geometry" />
        </mxCell>
        <mxCell id="U2aAuRXwoNtXRzY1ZKUq-1" value="" style="endArrow=classic;html=1;rounded=0;exitX=0.338;exitY=1.015;exitDx=0;exitDy=0;exitPerimeter=0;entryX=0.373;entryY=-0.018;entryDx=0;entryDy=0;entryPerimeter=0;" parent="1" source="LN0LXFTyaYzdAfLFpLI3-12" target="LN0LXFTyaYzdAfLFpLI3-5" edge="1">
          <mxGeometry width="50" height="50" relative="1" as="geometry">
            <mxPoint x="330" y="350" as="sourcePoint" />
            <mxPoint x="380" y="300" as="targetPoint" />
          </mxGeometry>
        </mxCell>
        <mxCell id="U2aAuRXwoNtXRzY1ZKUq-2" value="" style="endArrow=classic;html=1;rounded=0;entryX=-0.004;entryY=0.12;entryDx=0;entryDy=0;entryPerimeter=0;" parent="1" source="LN0LXFTyaYzdAfLFpLI3-12" target="LN0LXFTyaYzdAfLFpLI3-14" edge="1">
          <mxGeometry width="50" height="50" relative="1" as="geometry">
            <mxPoint x="763" y="260" as="sourcePoint" />
            <mxPoint x="760" y="387" as="targetPoint" />
          </mxGeometry>
        </mxCell>
        <mxCell id="U2aAuRXwoNtXRzY1ZKUq-5" value="" style="endArrow=block;dashed=1;endFill=0;endSize=12;html=1;rounded=0;entryX=0.373;entryY=1.087;entryDx=0;entryDy=0;entryPerimeter=0;" parent="1" target="LN0LXFTyaYzdAfLFpLI3-8" edge="1">
          <mxGeometry width="160" relative="1" as="geometry">
            <mxPoint x="335" y="630" as="sourcePoint" />
            <mxPoint x="420" y="590" as="targetPoint" />
          </mxGeometry>
        </mxCell>
        <mxCell id="U2aAuRXwoNtXRzY1ZKUq-6" value="" style="endArrow=classic;html=1;rounded=0;exitX=0.294;exitY=1.094;exitDx=0;exitDy=0;exitPerimeter=0;entryX=0.364;entryY=-0.048;entryDx=0;entryDy=0;entryPerimeter=0;" parent="1" source="LN0LXFTyaYzdAfLFpLI3-24" target="sCUTxpK51lz4mbgS00I6-1" edge="1">
          <mxGeometry width="50" height="50" relative="1" as="geometry">
            <mxPoint x="190" y="880" as="sourcePoint" />
            <mxPoint x="240" y="830" as="targetPoint" />
          </mxGeometry>
        </mxCell>
        <mxCell id="U2aAuRXwoNtXRzY1ZKUq-7" value="" style="endArrow=classic;html=1;rounded=0;entryX=0.4;entryY=-0.056;entryDx=0;entryDy=0;entryPerimeter=0;" parent="1" target="sCUTxpK51lz4mbgS00I6-5" edge="1">
          <mxGeometry width="50" height="50" relative="1" as="geometry">
            <mxPoint x="420" y="840" as="sourcePoint" />
            <mxPoint x="520" y="820" as="targetPoint" />
          </mxGeometry>
        </mxCell>
      </root>
    </mxGraphModel>
  </diagram>
</mxfile>
